<?xml version="1.0" encoding="UTF-8" standalone="no"?>
<!-- Created with Inkscape (http://www.inkscape.org/) -->

<svg
   width="16.802078mm"
   height="3.0606973mm"
   viewBox="0 0 16.802078 3.0606973"
   version="1.1"
   id="svg5"
   inkscape:version="1.2.1 (9c6d41e410, 2022-07-14)"
   sodipodi:docname="logo.svg"
   xmlns:inkscape="http://www.inkscape.org/namespaces/inkscape"
   xmlns:sodipodi="http://sodipodi.sourceforge.net/DTD/sodipodi-0.dtd"
   xmlns="http://www.w3.org/2000/svg"
   xmlns:svg="http://www.w3.org/2000/svg">
  <sodipodi:namedview
     id="namedview7"
     pagecolor="#505050"
     bordercolor="#eeeeee"
     borderopacity="1"
     inkscape:showpageshadow="0"
     inkscape:pageopacity="0"
     inkscape:pagecheckerboard="0"
     inkscape:deskcolor="#505050"
     inkscape:document-units="mm"
     showgrid="false"
     inkscape:zoom="7.319248"
     inkscape:cx="53.89898"
     inkscape:cy="11.135024"
     inkscape:window-width="1920"
     inkscape:window-height="1011"
     inkscape:window-x="3000"
     inkscape:window-y="1213"
     inkscape:window-maximized="0"
     inkscape:current-layer="layer1" />
  <defs
     id="defs2" />
  <g
     inkscape:label="Layer 1"
     inkscape:groupmode="layer"
     id="layer1"
     transform="translate(-43.569273,-130.47263)">
    <g
       aria-label="El Restaurante"
       id="text236"
       style="fill:#ffffff;font-size:4.23333px;font-family:'The Nautigal';-inkscape-font-specification:'The Nautigal, Normal';stroke-width:1.065">
      <path
         d="m 44.466738,133.53333 q -0.143933,0 -0.300566,-0.0339 -0.156633,-0.0296 -0.2921,-0.1016 -0.135466,-0.072 -0.220133,-0.1905 -0.08467,-0.11853 -0.08467,-0.29633 0,-0.16087 0.0889,-0.30057 0.09313,-0.14393 0.237066,-0.26246 0.143933,-0.12277 0.313266,-0.2159 0.169334,-0.0931 0.3302,-0.15664 0.1651,-0.0677 0.283633,-0.1016 -0.09737,-0.008 -0.211666,-0.0381 -0.110067,-0.0339 -0.186267,-0.1016 -0.0762,-0.0677 -0.0762,-0.1905 0,-0.13123 0.09737,-0.254 0.09737,-0.127 0.254,-0.23706 0.156633,-0.11007 0.338666,-0.1905 0.182033,-0.0804 0.3556,-0.127 0.173566,-0.0466 0.296333,-0.0466 0.110066,0 0.2159,0.0296 0.105833,0.0254 0.194733,0.0974 0.05927,-0.0931 0.127,-0.18203 0.06773,-0.0889 0.148166,-0.16087 0.05503,0.004 0.105833,0.0254 0.05503,0.0169 0.05927,0.0804 -0.08043,0.0804 -0.1651,0.1524 -0.08043,0.072 -0.1524,0.1651 0.04233,0.055 0.05503,0.1143 0.0127,0.0593 0.0127,0.127 0,0.0169 -0.0085,0.0762 -0.0042,0.0593 -0.02117,0.10584 -0.01693,0.0381 -0.02117,0.0381 -0.0085,0 -0.0085,-0.0339 0,-0.0339 0,-0.0508 0,-0.0254 -0.0085,-0.0889 -0.0042,-0.0677 -0.02117,-0.127 -0.01693,-0.0635 -0.04657,-0.0635 -0.05503,0.0381 -0.1143,0.13123 -0.05927,0.0889 -0.1016,0.1905 -0.04233,0.0974 -0.04233,0.16934 0,0.0804 0.04657,0.11006 0.04657,0.0254 0.04657,0.0423 0,0.008 -0.0127,0.008 -0.08043,0 -0.127,-0.0593 -0.04233,-0.0593 -0.04233,-0.13124 0,-0.0974 0.0508,-0.21166 0.05503,-0.11854 0.1143,-0.21167 0.05927,-0.0931 0.08043,-0.12277 -0.04233,-0.0339 -0.105833,-0.0466 -0.0635,-0.0127 -0.135467,-0.0127 -0.220133,0 -0.440266,0.0762 -0.2159,0.0762 -0.3937,0.19473 -0.177799,0.11853 -0.283633,0.24977 -0.105833,0.13123 -0.105833,0.23706 0,0.12277 0.143933,0.1778 0.0085,0 0.04657,0.008 0.04233,0.008 0.08467,0.0127 0.04233,0.004 0.0508,0.004 0.09737,-0.004 0.207434,-0.0212 0.110066,-0.0212 0.198966,-0.0212 0.0889,0 0.131233,0.0593 0.04657,0.0593 0.05503,0.1397 -0.02117,-0.008 -0.04657,-0.008 -0.0254,0 -0.04657,0 -0.118533,0 -0.296333,0.0381 -0.1778,0.0381 -0.372533,0.1016 -0.1905,0.0635 -0.359833,0.13547 -0.169333,0.072 -0.270933,0.13546 -0.110066,0.0677 -0.2159,0.15664 -0.105833,0.0889 -0.173566,0.2032 -0.06773,0.11006 -0.06773,0.24976 0,0.13124 0.0635,0.2159 0.06773,0.0847 0.169334,0.13124 0.1016,0.0466 0.220133,0.0635 0.122766,0.0169 0.2286,0.0169 0.228599,0 0.499533,-0.0635 0.270933,-0.0593 0.478366,-0.1524 0.08467,-0.0381 0.198966,-0.11007 0.118534,-0.072 0.2286,-0.1651 0.1143,-0.0974 0.186267,-0.2032 0.0762,-0.10583 0.0762,-0.20743 0,-0.0931 -0.05503,-0.14817 -0.0508,-0.0593 -0.08043,-0.0804 -0.0127,-0.0127 -0.0085,-0.008 0.0085,0.004 0.02963,-0.004 0.0762,0.0339 0.143933,0.11853 0.06773,0.0804 0.07197,0.1651 0.04233,0.055 0.04233,0.12277 0,0.10583 -0.09313,0.21167 -0.0889,0.10583 -0.220133,0.2032 -0.127,0.0931 -0.249766,0.16086 -0.122767,0.0677 -0.186267,0.0931 -0.211666,0.0889 -0.461433,0.1397 -0.245533,0.055 -0.474133,0.055 z"
         id="path295" />
      <path
         d="m 46.668074,133.39363 q -0.105833,0 -0.182033,-0.0762 -0.0762,-0.072 -0.0762,-0.23707 0,-0.21166 0.110066,-0.51646 0.110067,-0.3048 0.2794,-0.63924 0.131233,-0.24976 0.2794,-0.47836 0.148166,-0.2286 0.2921,-0.4064 0.143933,-0.18204 0.262466,-0.28364 0.122767,-0.10583 0.198966,-0.10583 0.07197,0 0.105834,0.0381 0.0381,0.0381 0.0635,0.0847 0.02963,0.0466 0.0762,0.0762 -0.0042,0.0974 -0.1016,0.24553 -0.09737,0.14817 -0.232833,0.32173 -0.0889,0.10584 -0.254,0.30057 -0.160867,0.1905 -0.321733,0.3937 -0.131234,0.16087 -0.232833,0.30903 -0.1016,0.14817 -0.156634,0.24554 -0.01693,0.0296 -0.0254,0.0212 -0.0085,-0.008 0,-0.0254 0.04233,-0.0847 0.131234,-0.2159 0.09313,-0.13546 0.207433,-0.28786 0.1143,-0.1524 0.224366,-0.2921 0.110067,-0.14394 0.1905,-0.24977 0.08043,-0.10583 0.110067,-0.1397 0.0635,-0.0804 0.122766,-0.1524 0.05927,-0.0762 0.105833,-0.14393 0.0508,-0.0762 0.07197,-0.13547 0.0254,-0.0593 0.0254,-0.0974 0,-0.0677 -0.05503,-0.0677 -0.0381,0 -0.09737,0.0381 -0.05503,0.0381 -0.127,0.12277 -0.105833,0.127 -0.249766,0.31326 -0.1397,0.18204 -0.287867,0.40217 -0.148166,0.22013 -0.275166,0.46143 -0.122767,0.23707 -0.2032,0.47837 -0.0762,0.23707 -0.0762,0.4572 0,0.1016 0.04233,0.14393 0.04233,0.0423 0.101599,0.0423 0.0635,0 0.131234,-0.0339 0.07197,-0.0381 0.118533,-0.0931 0.07197,-0.0762 0.1397,-0.16934 0.07197,-0.0931 0.127,-0.17356 0.05927,-0.0847 0.08467,-0.127 0.0127,-0.0212 0.0254,-0.0212 0.02117,0 0,0.0339 -0.06773,0.1143 -0.160866,0.2413 -0.0889,0.12276 -0.160867,0.21166 -0.06773,0.0847 -0.1651,0.13547 -0.09313,0.0508 -0.186266,0.0508 z"
         id="path297" />
      <path
         d="m 49.999698,133.50793 q -0.105834,0 -0.2032,-0.0889 -0.09737,-0.0889 -0.1778,-0.23707 -0.08043,-0.14816 -0.1397,-0.32173 -0.05927,-0.17357 -0.09313,-0.34713 -0.02963,-0.17357 -0.02963,-0.30904 v -0.004 q 0,-0.0212 0.0127,-0.0296 0.0127,-0.0127 0.01693,-0.0169 0.0254,-0.0212 0.110066,-0.0381 0.2413,-0.0423 0.478367,-0.1016 0.241299,-0.0593 0.448732,-0.18626 0.207434,-0.13124 0.351367,-0.37254 0.0508,-0.0889 0.0508,-0.17356 0,-0.10584 -0.09313,-0.16934 -0.0889,-0.0677 -0.232834,-0.1016 -0.139699,-0.0381 -0.296333,-0.0508 -0.01693,0.0169 -0.04657,0.0423 -0.0254,0.0254 -0.04233,0.0466 -0.110066,0.11007 -0.262466,0.2794 -0.1524,0.16934 -0.313266,0.37254 -0.160867,0.19896 -0.300567,0.41063 -0.1397,0.21167 -0.2286,0.41487 -0.08467,0.2032 -0.08467,0.37676 0,0.0762 0.0254,0.14394 0.0254,0.0635 0.118533,0.072 -0.01693,0.008 -0.03387,0.008 -0.05927,0 -0.110066,-0.0508 -0.0508,-0.055 -0.08043,-0.127 -0.02963,-0.0762 -0.02963,-0.13547 0,-0.1397 0.07197,-0.32596 0.07197,-0.18627 0.1905,-0.3937 0.118533,-0.21167 0.266699,-0.4191 0.1524,-0.21167 0.313267,-0.39794 0.160866,-0.18626 0.309033,-0.3302 -0.198967,0.004 -0.465666,0.0212 -0.262467,0.0127 -0.541867,0.055 -0.279399,0.0381 -0.524932,0.1143 -0.2413,0.072 -0.397933,0.19474 -0.0381,0.0296 -0.06773,0.0804 -0.0254,0.0508 -0.0254,0.1016 0,0.0508 0.02963,0.0847 0.0085,0.008 0.0085,0.0169 0,0.0127 -0.01693,0.0169 -0.0127,0.004 -0.02117,0 -0.04233,-0.0296 -0.09313,-0.0847 -0.04657,-0.055 -0.08043,-0.11007 -0.03387,-0.0593 -0.03387,-0.0931 0,-0.10584 0.1651,-0.19474 0.1651,-0.0889 0.427566,-0.15663 0.262467,-0.0677 0.554566,-0.1016 0.160867,-0.0212 0.376767,-0.0339 0.220133,-0.0169 0.448733,-0.0169 0.1778,0 0.342899,0.0127 l 0.0381,-0.0339 q -0.0085,-0.0127 -0.0085,-0.0423 0,-0.055 0.0762,-0.12277 0.02117,-0.0254 0.0508,-0.0466 0.02963,-0.0212 0.05503,-0.0423 0.02963,-0.0169 0.04657,-0.0296 0.01693,-0.0169 0.04657,-0.0339 0.05927,0.004 0.105833,0.0296 0.0508,0.0212 0.0508,0.0847 0,0.0169 -0.0085,0.0423 -0.0127,0.0296 -0.05503,0.0804 -0.04233,0.0466 -0.126999,0.127 0.114299,0.0169 0.232833,0.0593 0.118533,0.0381 0.207433,0.11853 0.09313,0.0762 0.122766,0.20743 0.02963,0.0254 0.04233,0.0847 0.01693,0.055 0.01693,0.1143 0,0.127 -0.09313,0.23283 -0.0889,0.10584 -0.2286,0.18204 -0.135467,0.0762 -0.2794,0.12276 -0.143933,0.0466 -0.254,0.055 -0.06773,0.004 -0.207433,0.0381 -0.135466,0.0296 -0.262466,0.0635 0,0.127 0.02117,0.28363 0.02117,0.15663 0.0508,0.30903 0.03387,0.1524 0.07197,0.2667 0.05503,0.1524 0.1397,0.2667 0.0889,0.11007 0.198966,0.11007 0.05927,0 0.118534,-0.0339 0.0635,-0.0339 0.131233,-0.11006 0.05503,-0.0593 0.110066,-0.127 0.05503,-0.0677 0.09737,-0.127 0.04233,-0.0593 0.06773,-0.0974 0.02963,-0.0423 0.04233,-0.0593 0.0127,-0.0212 0.0254,-0.0212 0.0085,0 0.0085,0.0127 0,0.0127 -0.0085,0.0296 -0.04233,0.0593 -0.122767,0.1778 -0.0762,0.1143 -0.1397,0.1905 -0.09737,0.127 -0.2032,0.20743 -0.1016,0.0847 -0.228599,0.0847 z"
         id="path299" />
      <path
         d="m 50.939493,133.37246 q -0.1143,0 -0.211667,-0.0804 -0.09313,-0.0847 -0.09313,-0.24553 0,-0.127 0.06773,-0.27517 0.06773,-0.14817 0.173567,-0.28363 0.110066,-0.13547 0.232833,-0.22437 0.122767,-0.0889 0.2286,-0.0931 0.01693,0.0169 0.0381,0.0254 0.0254,0.008 0.04657,0.0169 l 0.110067,0.0254 q 0.09313,0.0254 0.09313,0.11853 0,0.055 -0.0381,0.11854 -0.03387,0.0635 -0.105833,0.11006 -0.0381,0.0254 -0.08467,0.0508 -0.04233,0.0254 -0.0889,0.0508 l -0.190499,0.1016 q -0.0889,0.0466 -0.156634,0.1016 -0.06773,0.0508 -0.09737,0.11007 0,0 -0.0127,0.004 -0.0085,0 -0.0042,-0.0169 0.02963,-0.072 0.114299,-0.14393 0.0889,-0.0762 0.1778,-0.13124 0.04233,-0.0339 0.08467,-0.0593 0.04657,-0.0254 0.0889,-0.055 0.04233,-0.0296 0.08043,-0.0593 0.04233,-0.0339 0.07197,-0.0635 0.03387,-0.0339 0.04657,-0.0677 0.01693,-0.0339 0.01693,-0.0593 0,-0.0804 -0.09313,-0.0804 -0.05927,0 -0.135466,0.0508 -0.09313,0.0635 -0.1778,0.1524 -0.08467,0.0847 -0.160867,0.18627 -0.08043,0.11007 -0.143933,0.254 -0.05927,0.14393 -0.05927,0.2413 0,0.0974 0.05503,0.1397 0.05927,0.0381 0.135466,0.0381 0.105834,0 0.2032,-0.055 0.07197,-0.0423 0.135467,-0.10584 0.0635,-0.0677 0.105833,-0.11853 0.03387,-0.0423 0.0762,-0.1016 0.04657,-0.0593 0.0635,-0.0889 0.0085,-0.008 0.0127,0 0.0042,0.008 0.0042,0.0127 -0.01693,0.0296 -0.05927,0.0974 -0.0381,0.0635 -0.1143,0.16086 -0.0889,0.1143 -0.186267,0.1778 -0.09737,0.0635 -0.249766,0.0635 z"
         id="path301" />
      <path
         d="m 51.781924,133.31743 q -0.09737,0 -0.1778,-0.0466 -0.0762,-0.0508 -0.0762,-0.14393 0,-0.0339 0.0127,-0.072 0.0127,-0.0423 0.03387,-0.0635 0,0.0466 0.02963,0.0847 0.02963,0.0339 0.06773,0.055 0.0381,0.0169 0.07197,0.0254 0.0381,0.008 0.06773,0.008 0.09737,0 0.1524,-0.0677 0.05503,-0.072 0.05503,-0.1524 0,-0.072 -0.0381,-0.127 -0.0254,-0.0339 -0.05503,-0.0593 -0.02963,-0.0296 -0.0635,-0.0593 -0.0254,-0.0212 -0.04657,-0.0508 -0.02117,-0.0296 -0.05503,-0.0889 l -0.1778,0.27094 q -0.0635,0.0931 -0.118534,0.17356 -0.05503,0.0804 -0.143933,0.18627 -0.0254,0.0296 -0.0381,0.0296 -0.01693,-0.004 0.0042,-0.0339 0.09737,-0.12277 0.160866,-0.21167 0.0635,-0.0889 0.148167,-0.2159 0.04233,-0.0593 0.08467,-0.13547 0.04657,-0.0762 0.06773,-0.15663 0,-0.13123 0.0889,-0.2286 0.0889,-0.1016 0.2159,-0.1524 0.131234,-0.055 0.245533,-0.0423 0.0254,0 0.05503,0.0381 0.02963,0.0381 0.0508,0.0847 0.02117,0.0423 0.02117,0.0677 0,0.0127 -0.0085,0.0127 -0.0127,0 -0.03387,-0.0169 -0.03387,-0.0296 -0.1016,-0.0296 -0.0889,0 -0.194733,0.0508 -0.105833,0.0466 -0.186267,0.12277 -0.0762,0.072 -0.0762,0.1524 0,0.0593 0.04657,0.11006 0.0508,0.0508 0.110067,0.0974 0.0635,0.0423 0.1016,0.0931 0.04233,0.0466 0.05927,0.0931 0.01693,0.0466 0.01693,0.0931 0,0.0804 -0.0508,0.14817 -0.0508,0.0635 -0.122767,0.10583 -0.0889,0.0508 -0.2032,0.0508 z"
         id="path303" />
      <path
         d="m 52.594725,133.38093 q -0.0889,0 -0.156634,-0.072 -0.0635,-0.072 -0.0635,-0.20743 0,-0.1016 0.04657,-0.24553 0.0508,-0.14817 0.122767,-0.30904 0.0762,-0.1651 0.156633,-0.30903 0.08467,-0.14817 0.148166,-0.24977 -0.07197,0 -0.126999,0 -0.05503,-0.004 -0.0889,0 -0.02963,0 -0.0381,-0.008 -0.0042,-0.0127 0,-0.0169 0,-0.0127 0.0127,-0.0339 0.01693,-0.0212 0.02963,-0.0212 h 0.258233 q 0.02117,-0.0254 0.05503,-0.0889 0.0381,-0.0635 0.0762,-0.13547 0.0381,-0.072 0.0635,-0.127 0.02963,-0.0593 0.02963,-0.072 0,-0.0381 -0.0254,-0.055 -0.01693,-0.008 -0.01693,-0.008 -0.0042,0 -0.0042,0 0,-0.004 -0.0042,-0.004 -0.0042,-0.004 -0.0042,-0.0127 0,-0.0127 0.0127,-0.0169 0.0127,-0.008 0.02117,-0.008 0.0254,0 0.04657,0.0127 0.0254,0.008 0.08043,0.0381 0.0254,0.0127 0.0508,0.0254 0.02963,0.008 0.04657,0.0212 l 0.03387,0.0212 q -0.0254,0.0423 -0.08043,0.11853 -0.0508,0.0762 -0.1016,0.15663 -0.0508,0.0804 -0.08467,0.13547 h 0.757766 q 0.0508,0 0.0508,0.0127 0,0.0127 -0.0381,0.0296 -0.03387,0.0127 -0.0508,0.0127 -0.05503,0.004 -0.156633,0.004 -0.09737,0 -0.211666,0.004 -0.110067,0 -0.207434,0.008 -0.09313,0.004 -0.131233,0.0169 -0.0635,0.0212 -0.143933,0.1397 -0.08043,0.1143 -0.156633,0.27093 -0.07197,0.15664 -0.131233,0.3048 -0.0127,0.0339 -0.04657,0.1143 -0.02963,0.0804 -0.05927,0.17357 -0.0254,0.0931 -0.0254,0.17357 0,0.0762 0.02963,0.11006 0.02963,0.0339 0.07197,0.0339 0.0508,0 0.1143,-0.0593 0.06773,-0.0593 0.148167,-0.1524 0.08467,-0.10583 0.156633,-0.21166 0.0762,-0.11007 0.09737,-0.14817 0.03387,-0.055 0.04233,-0.055 0.0042,0 0.0042,0.004 0,0 0,0 0,0.0127 -0.0127,0.0466 -0.0127,0.0296 -0.0254,0.0508 -0.0762,0.11006 -0.1651,0.24553 -0.0889,0.13547 -0.182033,0.23283 -0.110066,0.11007 -0.224366,0.11007 z"
         id="path305" />
      <path
         d="m 53.200092,133.364 q -0.0889,0 -0.135466,-0.0847 -0.04233,-0.0889 -0.04233,-0.1524 0,-0.14817 0.0889,-0.30903 0.0889,-0.16087 0.224367,-0.3048 0.1397,-0.14394 0.2921,-0.23284 0.152399,-0.0889 0.283633,-0.0889 0.0381,0 0.08467,0.0339 0.0508,0.0296 0.09313,0.0974 0.0085,0.008 0.02117,0.0381 0.0127,0.0254 0,0.0466 l -0.0042,-0.008 q -0.0085,-0.0212 -0.0381,-0.0339 -0.02963,-0.0169 -0.0889,-0.0169 -0.09737,0 -0.220133,0.0677 -0.118533,0.0677 -0.2413,0.18203 -0.118533,0.1143 -0.2159,0.24977 -0.09737,0.13547 -0.143933,0.27517 -0.02963,0.072 -0.02963,0.12276 0,0.0635 0.04657,0.0635 0.03387,0 0.08043,-0.0339 0.0889,-0.0677 0.186266,-0.17357 0.09737,-0.10583 0.186267,-0.22013 0.09313,-0.1143 0.160866,-0.21167 0.07197,-0.0974 0.1016,-0.14393 0.0127,-0.0169 0.02963,-0.0169 0.02117,-0.004 0.0508,-0.004 0.08467,0 0.105834,0.0296 0.0254,0.0254 0.0042,0.055 -0.05503,0.0804 -0.118533,0.18626 -0.05927,0.10584 -0.105834,0.20744 -0.04233,0.1016 -0.04233,0.18203 0,0.0635 0.0508,0.0635 0.04657,0 0.1016,-0.055 0.0508,-0.0466 0.118533,-0.13547 0.07197,-0.0889 0.1397,-0.18627 0.07197,-0.0974 0.118533,-0.16933 0.01693,-0.0212 0.0254,-0.0169 0.0127,0 0,0.0254 -0.06773,0.10583 -0.1397,0.22013 -0.07197,0.11007 -0.152399,0.20743 -0.1524,0.19474 -0.2286,0.19474 -0.06773,0 -0.127,-0.0423 -0.05927,-0.0423 -0.05927,-0.12276 0,-0.0847 0.03387,-0.19474 0.0381,-0.1143 0.06773,-0.1778 -0.0889,0.13547 -0.2032,0.27094 -0.1143,0.13546 -0.2159,0.2286 -0.09737,0.0889 -0.143933,0.0889 z"
         id="path307" />
      <path
         d="m 54.37696,133.33013 q -0.09313,0 -0.143934,-0.0423 -0.04657,-0.0423 -0.0381,-0.11007 0.0085,-0.0466 0.0254,-0.10583 0.01693,-0.0593 0.04233,-0.11854 l 0.1016,-0.23706 q -0.0042,-0.008 -0.0085,-0.0127 0,-0.008 0,-0.0127 -0.0042,-0.0169 0.0042,-0.0296 0.110067,-0.16933 0.2032,-0.28363 0.09313,-0.1143 0.122767,-0.1143 0.05927,0 0.139699,0.0804 -0.05503,0.0677 -0.114299,0.1524 -0.05927,0.0804 -0.1143,0.1651 -0.05927,0.0889 -0.127,0.19474 -0.0635,0.1016 -0.0889,0.18626 -0.0254,0.0762 -0.0254,0.11854 0,0.0593 0.04233,0.0593 0.05503,0 0.160867,-0.1143 0.07197,-0.0762 0.156633,-0.18626 0.0889,-0.1143 0.169333,-0.2286 0.08467,-0.11854 0.156633,-0.22014 0.0762,-0.10583 0.127,-0.16933 0.04657,-0.0593 0.08467,-0.0593 0.05503,0 0.127,0.0931 -0.05927,0.0847 -0.143934,0.22013 -0.08467,0.13123 -0.156633,0.27093 -0.06773,0.13547 -0.0889,0.2413 -0.0042,0.0169 -0.0085,0.0339 0,0.0169 0,0.0381 0,0.12277 0.0635,0.12277 0.03387,0 0.08043,-0.0381 0.0508,-0.0381 0.09737,-0.0889 0.04657,-0.0508 0.07197,-0.0847 0.135467,-0.18203 0.258233,-0.37677 0.0254,-0.0381 0.03387,-0.0381 0.0085,0 0.0042,0.0169 0,0.0127 -0.0042,0.0212 -0.08467,0.1397 -0.198967,0.3048 -0.110066,0.1651 -0.220133,0.27094 -0.05927,0.0593 -0.118533,0.0593 -0.1143,0 -0.169333,-0.055 -0.05503,-0.055 -0.05503,-0.12277 0,-0.0423 0.0127,-0.0889 0.0127,-0.0508 0.02963,-0.1016 l 0.1143,-0.30056 q -0.0635,0.0804 -0.105834,0.13546 -0.04233,0.0508 -0.0762,0.0974 -0.02963,0.0423 -0.06773,0.0974 -0.0381,0.0508 -0.08043,0.1016 -0.08043,0.10583 -0.156633,0.18203 -0.0762,0.0762 -0.118533,0.0762 z"
         id="path309" />
      <path
         d="m 55.879791,133.37246 q -0.1016,0 -0.1397,-0.0677 -0.0381,-0.072 -0.0254,-0.1524 0.01693,-0.11007 0.05927,-0.1778 0.04657,-0.0677 0.110067,-0.14817 0.0508,-0.072 0.09737,-0.14816 0.04657,-0.0762 0.0127,-0.0889 -0.02117,0.0169 -0.07197,0.0381 -0.0508,0.0212 -0.105833,0.0212 -0.04657,0 -0.09313,-0.0212 -0.04233,-0.0212 -0.0635,-0.0762 -0.05503,0.1016 -0.135467,0.22436 -0.0762,0.11854 -0.156633,0.2286 -0.0762,0.11007 -0.135467,0.18204 -0.01693,0.0169 -0.02963,0.0127 -0.01693,-0.004 -0.0042,-0.0212 0.09737,-0.12277 0.224366,-0.30903 0.127,-0.18627 0.232833,-0.40217 0.105834,-0.22013 0.131233,-0.42757 0.143934,0.0677 0.143934,0.17357 0,0.0804 -0.06773,0.1651 -0.06773,0.0804 -0.177799,0.14817 0.05503,0.0804 0.139699,0.0804 0.0635,0 0.127,-0.0381 0.06773,-0.0423 0.105834,-0.0931 0.03387,-0.0381 0.05503,-0.0508 0.0254,-0.0127 0.04233,-0.0127 0.05927,0 0.08467,0.0381 0.02963,0.0339 0.0085,0.0762 -0.0762,0.10583 -0.173566,0.26246 -0.09737,0.1524 -0.173567,0.28787 -0.0127,0.0169 -0.03387,0.0762 -0.02117,0.0593 -0.02117,0.10583 0,0.0635 0.0508,0.0635 0.05927,0 0.135467,-0.0677 0.0762,-0.072 0.152399,-0.16933 0.0762,-0.1016 0.135467,-0.19474 0.0635,-0.0931 0.09313,-0.13546 0.02117,-0.0381 0.03387,-0.0381 0.0042,0 0.0042,0.008 0,0.0169 -0.0127,0.0381 -0.0635,0.10584 -0.135466,0.21167 -0.07197,0.10583 -0.143933,0.2032 -0.06773,0.0889 -0.1397,0.1397 -0.06773,0.055 -0.1397,0.055 z"
         id="path311" />
      <path
         d="m 56.463989,133.364 q -0.0889,0 -0.135466,-0.0847 -0.04233,-0.0889 -0.04233,-0.1524 0,-0.14817 0.0889,-0.30903 0.0889,-0.16087 0.224367,-0.3048 0.1397,-0.14394 0.2921,-0.23284 0.152399,-0.0889 0.283633,-0.0889 0.0381,0 0.08467,0.0339 0.0508,0.0296 0.09313,0.0974 0.0085,0.008 0.02117,0.0381 0.0127,0.0254 0,0.0466 l -0.0042,-0.008 q -0.0085,-0.0212 -0.0381,-0.0339 -0.02963,-0.0169 -0.0889,-0.0169 -0.09737,0 -0.220133,0.0677 -0.118533,0.0677 -0.2413,0.18203 -0.118533,0.1143 -0.2159,0.24977 -0.09737,0.13547 -0.143933,0.27517 -0.02963,0.072 -0.02963,0.12276 0,0.0635 0.04657,0.0635 0.03387,0 0.08043,-0.0339 0.0889,-0.0677 0.186267,-0.17357 0.09737,-0.10583 0.186267,-0.22013 0.09313,-0.1143 0.160866,-0.21167 0.07197,-0.0974 0.1016,-0.14393 0.0127,-0.0169 0.02963,-0.0169 0.02117,-0.004 0.0508,-0.004 0.08467,0 0.105833,0.0296 0.0254,0.0254 0.0042,0.055 -0.05503,0.0804 -0.118533,0.18626 -0.05927,0.10584 -0.105834,0.20744 -0.04233,0.1016 -0.04233,0.18203 0,0.0635 0.0508,0.0635 0.04657,0 0.1016,-0.055 0.0508,-0.0466 0.118533,-0.13547 0.07197,-0.0889 0.1397,-0.18627 0.07197,-0.0974 0.118533,-0.16933 0.01693,-0.0212 0.0254,-0.0169 0.0127,0 0,0.0254 -0.06773,0.10583 -0.1397,0.22013 -0.07197,0.11007 -0.1524,0.20743 -0.152399,0.19474 -0.228599,0.19474 -0.06773,0 -0.127,-0.0423 -0.05927,-0.0423 -0.05927,-0.12276 0,-0.0847 0.03387,-0.19474 0.0381,-0.1143 0.06773,-0.1778 -0.0889,0.13547 -0.2032,0.27094 -0.1143,0.13546 -0.2159,0.2286 -0.09737,0.0889 -0.143933,0.0889 z"
         id="path313" />
      <path
         d="m 58.195423,133.37246 q -0.110067,0 -0.156634,-0.0635 -0.04233,-0.0677 -0.04233,-0.15663 0,-0.1016 0.02963,-0.2032 0.03387,-0.10583 0.07197,-0.1905 0.04233,-0.0889 0.06773,-0.13547 0.07197,-0.13546 0.07197,-0.1778 0,-0.0466 -0.04233,-0.0296 -0.03387,0.0127 -0.09313,0.072 -0.05927,0.0593 -0.122766,0.13546 -0.0635,0.0762 -0.1143,0.1397 -0.04657,0.0635 -0.05927,0.0847 -0.118533,0.16933 -0.1651,0.2794 -0.04657,0.11007 -0.06773,0.16087 -0.0085,0.0212 -0.04657,0.0212 -0.0381,0 -0.0762,-0.0296 -0.0381,-0.0339 -0.0381,-0.0974 0,-0.0339 0.0381,-0.11853 0.0381,-0.0889 0.09313,-0.20743 0.0508,-0.1143 0.1016,-0.2286 0.0508,-0.11854 0.08043,-0.18627 -0.02963,-0.0254 -0.02963,-0.0381 0,-0.0127 0.0042,-0.0212 0.0085,-0.0212 0.03387,-0.0677 0.0254,-0.0508 0.0508,-0.0974 0.0254,-0.0508 0.03387,-0.0635 0.0127,-0.008 0.0635,-0.0296 0.05503,-0.0212 0.105833,-0.0212 h 0.01693 q 0.0508,0 0.0508,0.0296 0,0.0296 -0.02963,0.0762 -0.0127,0.0212 -0.05927,0.11006 -0.04657,0.0847 -0.105833,0.19474 -0.05927,0.11006 -0.110067,0.21166 -0.04657,0.0974 -0.06773,0.14817 -0.0127,0.0381 -0.0127,0.0762 0.0042,0.0339 0.02117,0.008 0.118534,-0.1778 0.220134,-0.3048 0.101599,-0.127 0.203199,-0.23707 0.1016,-0.11007 0.224367,-0.2286 0.04233,0.0169 0.0889,0.0169 0.04657,0 0.08043,0.0254 0.01693,0.0127 0.01693,0.0423 0,0.0593 -0.07197,0.1778 -0.06773,0.1143 -0.1524,0.25823 -0.0635,0.11007 -0.127,0.254 -0.0635,0.14393 -0.0635,0.24977 0,0.055 0.01693,0.0931 0.02117,0.0339 0.0635,0.0339 0.0381,0 0.08467,-0.0296 0.03387,-0.0212 0.148166,-0.1397 0.1143,-0.12276 0.249767,-0.3302 0.0127,-0.0127 0.01693,-0.0127 0.0085,0 0.0085,0.008 0,0.008 -0.0127,0.0339 -0.1397,0.23706 -0.2794,0.37253 -0.135466,0.13123 -0.211666,0.13123 z"
         id="path315" />
      <path
         d="m 58.902385,133.38093 q -0.0889,0 -0.156633,-0.072 -0.0635,-0.072 -0.0635,-0.20743 0,-0.1016 0.04657,-0.24553 0.0508,-0.14817 0.122767,-0.30904 0.0762,-0.1651 0.156633,-0.30903 0.08467,-0.14817 0.148167,-0.24977 -0.07197,0 -0.127,0 -0.05503,-0.004 -0.0889,0 -0.02963,0 -0.0381,-0.008 -0.0042,-0.0127 0,-0.0169 0,-0.0127 0.0127,-0.0339 0.01693,-0.0212 0.02963,-0.0212 h 0.258233 q 0.02117,-0.0254 0.05503,-0.0889 0.0381,-0.0635 0.0762,-0.13547 0.0381,-0.072 0.0635,-0.127 0.02963,-0.0593 0.02963,-0.072 0,-0.0381 -0.0254,-0.055 -0.01693,-0.008 -0.01693,-0.008 -0.0042,0 -0.0042,0 0,-0.004 -0.0042,-0.004 -0.0042,-0.004 -0.0042,-0.0127 0,-0.0127 0.0127,-0.0169 0.0127,-0.008 0.02117,-0.008 0.0254,0 0.04657,0.0127 0.0254,0.008 0.08043,0.0381 0.0254,0.0127 0.0508,0.0254 0.02963,0.008 0.04657,0.0212 l 0.03387,0.0212 q -0.0254,0.0423 -0.08043,0.11853 -0.0508,0.0762 -0.1016,0.15663 -0.0508,0.0804 -0.08467,0.13547 h 0.757766 q 0.0508,0 0.0508,0.0127 0,0.0127 -0.0381,0.0296 -0.03387,0.0127 -0.0508,0.0127 -0.05503,0.004 -0.156633,0.004 -0.09737,0 -0.211666,0.004 -0.110067,0 -0.207433,0.008 -0.09313,0.004 -0.131234,0.0169 -0.0635,0.0212 -0.143933,0.1397 -0.08043,0.1143 -0.156633,0.27093 -0.07197,0.15664 -0.131233,0.3048 -0.0127,0.0339 -0.04657,0.1143 -0.02963,0.0804 -0.05927,0.17357 -0.0254,0.0931 -0.0254,0.17357 0,0.0762 0.02963,0.11006 0.02963,0.0339 0.07197,0.0339 0.0508,0 0.1143,-0.0593 0.06773,-0.0593 0.148167,-0.1524 0.08467,-0.10583 0.156633,-0.21166 0.0762,-0.11007 0.09737,-0.14817 0.03387,-0.055 0.04233,-0.055 0.0042,0 0.0042,0.004 0,0 0,0 0,0.0127 -0.0127,0.0466 -0.0127,0.0296 -0.0254,0.0508 -0.0762,0.11006 -0.1651,0.24553 -0.0889,0.13547 -0.182033,0.23283 -0.110066,0.11007 -0.224366,0.11007 z"
         id="path317" />
      <path
         d="m 59.685552,133.37246 q -0.1143,0 -0.211666,-0.0804 -0.09313,-0.0847 -0.09313,-0.24553 0,-0.127 0.06773,-0.27517 0.06773,-0.14817 0.173566,-0.28363 0.110067,-0.13547 0.232833,-0.22437 0.122767,-0.0889 0.2286,-0.0931 0.01693,0.0169 0.0381,0.0254 0.0254,0.008 0.04657,0.0169 l 0.110066,0.0254 q 0.09313,0.0254 0.09313,0.11853 0,0.055 -0.0381,0.11854 -0.03387,0.0635 -0.105834,0.11006 -0.0381,0.0254 -0.08467,0.0508 -0.04233,0.0254 -0.0889,0.0508 l -0.1905,0.1016 q -0.0889,0.0466 -0.156633,0.1016 -0.06773,0.0508 -0.09737,0.11007 0,0 -0.0127,0.004 -0.0085,0 -0.0042,-0.0169 0.02963,-0.072 0.1143,-0.14393 0.0889,-0.0762 0.1778,-0.13124 0.04233,-0.0339 0.08467,-0.0593 0.04657,-0.0254 0.0889,-0.055 0.04233,-0.0296 0.08043,-0.0593 0.04233,-0.0339 0.07197,-0.0635 0.03387,-0.0339 0.04657,-0.0677 0.01693,-0.0339 0.01693,-0.0593 0,-0.0804 -0.09313,-0.0804 -0.05927,0 -0.135467,0.0508 -0.09313,0.0635 -0.1778,0.1524 -0.08467,0.0847 -0.160866,0.18627 -0.08043,0.11007 -0.143933,0.254 -0.05927,0.14393 -0.05927,0.2413 0,0.0974 0.05503,0.1397 0.05927,0.0381 0.135467,0.0381 0.105833,0 0.2032,-0.055 0.07197,-0.0423 0.135466,-0.10584 0.0635,-0.0677 0.105834,-0.11853 0.03387,-0.0423 0.0762,-0.1016 0.04657,-0.0593 0.0635,-0.0889 0.0085,-0.008 0.0127,0 0.0042,0.008 0.0042,0.0127 -0.01693,0.0296 -0.05927,0.0974 -0.0381,0.0635 -0.1143,0.16086 -0.0889,0.1143 -0.186266,0.1778 -0.09737,0.0635 -0.249767,0.0635 z"
         id="path319" />
    </g>
  </g>
</svg>
